<svg xmlns="http://www.w3.org/2000/svg" viewBox="0 0 504.92 127.68"><g id="Layer_2" data-name="Layer 2" shape-rendering="optimizeQuality"><g id="Layer_1-2" data-name="Layer 1"><path d="M15.46,15.91c.5.12,1,.28,1.48.41a9.94,9.94,0,0,1-3.84.48,62.3,62.3,0,0,0,12.22,1,91.68,91.68,0,0,0,12.78-1,110.31,110.31,0,0,0,12.24-2.52A93.27,93.27,0,0,0,61,10.87c4.67-.15,8.75-1.65,9.09-3.38s-3.19-3-7.92-2.88a22.55,22.55,0,0,1-3-.44A81.39,81.39,0,0,0,47.78,1.49C43.69.83,39.32.35,34.74,0l5.42,1.12A52.12,52.12,0,0,0,32,.83c.32.29.74.57,1.07.86C23.86,0,11.6,1.87,5.66,5.59s-3.39,8,5.74,9.56Z" fill="#26008a"/><path d="M32.89,24.51C27.46,23.77,22.23,23,17,22.15l-1.07-.49.55,2.58.09-.17a37,37,0,0,1,8.91-3.16c3.46-.82,7.26-1.48,10.9-2.05L39,18.29a3.57,3.57,0,0,0,2.25-1.56c.52-1.3-1.85-2.32-5.28-2.29l-4,.05a79.56,79.56,0,0,0-8.06-.23,74.94,74.94,0,0,0-8.62.7c-5.61.8-10.62,2.29-13.11,4.72-1.12,1.12,0,2.33.4,3.5-.22,1.76,3.5,3,8.28,2.73s8.79-1.89,9-3.66l2.47.17-1.87.77c1.23-1.62,5.57-2.3,8.76-3.32l4.84-.77-3-3.86L28.51,16a5.67,5.67,0,0,1,.57.41c-4.75,1.43-9.2,2.91-14.42,4l-6.52,2c-1.73.91-1.46,2,.56,2.58l3,.64-1.37-.41c6.85.39,14,.32,20.82.84a4.54,4.54,0,0,0,2.89-.59C34.49,25.05,34,24.61,32.89,24.51Z" fill="#26008a"/><path d="M9,26.89a10.61,10.61,0,0,0-3.77-.27L4.59,27l2.2.52C8.37,27.9,9.14,27.45,9,26.89Z" fill="#26008a"/><path d="M4.59,27l-.92-.22.63.33.18,0Z" fill="#26008a"/><path d="M304.12,17.16c21.34,2.83,42.71,6.38,64,10.15.71.14,1.35.06,1.42-.19s-.45-.53-1.11-.64c-21.33-3.82-42.62-7.36-64-10.2-.72-.08-1.33,0-1.45.27S303.45,17.06,304.12,17.16Z" fill="#26008a"/><path d="M457.53,64c-.55.07-.59.33-.11.63a3.28,3.28,0,0,0,1.75.4c.46,0,.52-.35.11-.62A3.15,3.15,0,0,0,457.53,64Z" fill="#26008a"/><path d="M448.76,82.19a43.91,43.91,0,0,0-7.77,0,2.75,2.75,0,0,1-1.27-.23c.09.43-.49.71-1.49.72-9.9.1-20.26.34-31.5.19-2.81,0-5.63-.11-8.55-.24s-5.84-.28-8.82-.49c-1.47-.08-3-.23-4.51-.38l-4.55-.45-8.09-.73a2.23,2.23,0,0,1-1.06.77c-1.64.75-4.67.76-7.69.05l-2.26-.65c-4.58-1.16-9.23-2-13.85-3L333.5,74.85a34.06,34.06,0,0,1-6.66.06c-4.11.13-8.23.24-12.35.3-2.06,0-4.14.08-6.22.15l-6.26.11c.49.33.77.7.73,1.06-.25.85-2.23,1.31-4.46,1l-3.38-.28L304.52,79a7.26,7.26,0,0,1,1.27.27l5.34.55,5.41.58c15.87,1.48,31.31,2.62,46.52,3.77q5.71.47,11.39.84l12.27.85c8.56.43,16.66.32,24.4.15a2.94,2.94,0,0,1,1.72.26c.28.24.2.52-.37.58C402.65,88,392.92,89.61,382,90.13l-2.05.09c-.68,0-1.42,0-2,.1l-3.53.25c-2.37.15-4.77.28-7.2.37s-4.9.14-7.43.15l-7.75,0q-9.48-.09-18.86-.29c-6.29,0-12.56,0-18.83-.06l-4.7,0-4.73,0-9.47,0c-3.17,0-6.33,0-9.52,0l-9.6.12c-26.69-2.07-51.63-1.07-79.08.15C160.18,92.75,125,94.11,88.39,96.2a64.35,64.35,0,0,1-9.94.27,50.59,50.59,0,0,1-8.7-1.07c-5.19-1.15-8.93-3.11-10-5.62-1.24-3,1.69-6.19,7.26-8.54l-3.38.14-5.39-.28c-5.1-.32-9.52-1.26-12.37-2.82L42,76.39c-5.29-3.72-13.66-6.61-18.1-10.55l.8-1.68-1-.39c-3.3-.93-5.59-2.3-6.46-3.88l.15-2a13,13,0,0,1,4.38-6.7,3.09,3.09,0,0,1,.71-2.47c-2.37-1.83-3.58-3.84-2-6.3-1.37-.47-1.22-1.34.33-1.95A7.8,7.8,0,0,1,22.61,40h0a20.33,20.33,0,0,0-2-1.07c-1.34-.07-2.11-.14-2.11-.14l-6.64-.15a18.55,18.55,0,0,1-4.38-1.3c-3.2-3.27-3.2-3.26-2.87-4.8a3.53,3.53,0,0,1,.53-.48c-2.38-.31-2.55-.34-3.19-.44a6.53,6.53,0,0,1-1.16-.5c-.17-.8-.17-.8-.59-1.06a1.49,1.49,0,0,1-.15-.6c1.23-1,1.23-1,1.24-1.26a4.27,4.27,0,0,1,.7-.5l2.36-.62L7.76,29l.65-.78.85.9-.51-.85,1.7.41L8.5,28A37.78,37.78,0,0,0,14,27.86a17.53,17.53,0,0,0,3.19-.38A1.2,1.2,0,0,1,17,27c4.22,0,4.22,0,8.33.06a9.37,9.37,0,0,1,1,.52,3.6,3.6,0,0,1,2-.46h2.16l.45-.16a.32.32,0,0,1,0-.07l1.78-.54.37-.13h0l7.72-2.35c1.28,0,2.47.07,3.6.16-.37-.1-.72-.21-1.07-.32-.68-.24-.13-1.06-.5-1.1-9.09-1-18.94-1-28.64-1.1-1.72.23-3.38-.1-3.68-.71s.91-1.29,2.68-1.52A144.47,144.47,0,0,1,44.65,14c5.49-.4,11-.44,16.47-.33s10.76.42,15.86,1q8,.2,16.1.26l-.79-.35,4.19.38h.45l-3.22-1.26-2.2-.3c-6.24,0-12.22-.37-18.15-.86s-11.79-1-17.85-1.31C49,10.88,43.37,10,37.2,9.38c-1.57,0-2.7-.4-2.55-1s1.58-1.07,3.12-1.11A249.09,249.09,0,0,1,69.31,5.42,131.9,131.9,0,0,1,98.1,8.47a38.65,38.65,0,0,1,10.38.89h.17l-2.35-1.1c2.81.19,4.34,1.1,6.9,1.42l-1-1.58c3.45.11,7,.13,10.52.13l10.65.1a135.57,135.57,0,0,1,20.44,1.48c.52,0,1,.08,1.48.13a93.49,93.49,0,0,1,17.62-2.58l-6.6-.45c2.37-.37,4.74-.71,7.15-.9s4.88-.28,7.43-.24c3.46,0,7,.24,10.52.58,1.75.16,3.49.36,5.2.6s3.38.55,5,.87c6.5,1.3,12.15,3.09,15.74,5.28,26.74.22,53.58,1.3,80.43,2.7,1.39.07,2.59.53,2.79,1s-.85.86-2.24.79c-4.83-.11-9.66-.05-14.51-.11s-9.69-.14-14.54-.25l-14.57-.12c-4.86-.06-9.73-.17-14.59-.13,2,.19,4,.34,6.08.56l6.08.64,12.2,1.24c4.08.36,8.17.83,12.28,1.27s8.24.83,12.38,1.2c2.12.1,4.26.17,6.4.33a50.69,50.69,0,0,1,6.26.88l15.73,1.62,15.57,1.88,7.8.87,7.86,1c5.26.63,10.59,1.21,16,1.71l13.56,1.53,6.6.73c2.15.23,4.54.5,6.19.62,7.2.68,14.91.88,23.84,1l9.55.17,2.41.06,2.48.09,4.95.19c3.41.21,6.7.34,10.2.7,1.73.17,3.44.32,5.18.51l5.28.7a146.5,146.5,0,0,1,43.2,12.81A23.62,23.62,0,0,1,501,50.7a15.42,15.42,0,0,1,2.14,1.57c1.2,1,1.9,2,1.82,2.69s-.9.87-2.16.7a11.77,11.77,0,0,1-2.18-.53c-.81-.28-1.7-.62-2.65-1a172.14,172.14,0,0,0-45.17-11.89c-14.84-2-28.76-2.16-41.5-2.71-6.42-.25-12.43-.63-18.29-1.24l-4.33-.51-5-.66L373.51,35.7c-3.38-.47-6.76-1-10.15-1.46l-10.22-1.35-10.26-1.45c-3.43-.52-6.88-.9-10.34-1.38-6-.78-11.84-1.64-17.68-2.35a1.15,1.15,0,0,1,.09.51c-.07.66-.7,1.22-1.69,1.64,3.32.38,6.63.93,9.95,1.47s6.64,1.11,10,1.7l7.06.34,7.06.53c4.72.38,9.45.79,14.22,1.28,2.39.22,4.77.54,7.16.89s4.8.71,7.22,1.1,4.83.81,7.27,1.26,5,1,7,1.39c11.63,2.57,23.45,4.86,36.06,7.59,16.24,1,33.94,2.77,51.51,8.42a2.49,2.49,0,0,1,1.56.87c.16.32-.29.4-1,.2a230.19,230.19,0,0,0-37-5.39c1.78,1.06,2.73,2.22,2.4,3.27s-1.94,1.85-4.23,2.2l4,.67c1.33.21,2.65.45,4,.75,1.65.35,2.86,1,2.7,1.57s-1.54.76-3.09.45c-10.76-2.09-21.45-3.24-31.84-4.37-6.3-.31-12.44-.65-18.53-1.19l-4.55-.43-4.49-.57-4.61-.6-4.72-.65a7.55,7.55,0,0,1,3.14,3.27v0l5.72.9c17.32,1.45,35.25.86,53.95,3.05a153.18,153.18,0,0,1,28.08,5.79A124.28,124.28,0,0,1,496,77.45c.67.35,1.13.83,1,1.07s-.75.14-1.34-.21A127.44,127.44,0,0,0,463.3,64.89l0,0c.41.28.41.58-.13.62a3.42,3.42,0,0,1-1.75-.48c-.47-.31-.35-.58.12-.62a175.67,175.67,0,0,0-31.41-4.7c-10.34-.72-20.46-.86-30.39-1.28,9.16,1,18.47,1.65,27.85,2.72a193.13,193.13,0,0,1,28.15,5c1.05.09,2.12.15,3.18.26l3.19.41a2.39,2.39,0,0,1,1.43.74c.1.25-.38.39-1,.29l-1.77-.25a13.92,13.92,0,0,1,4.18,2c1,.75,1.42,1.58,1.19,2.19s-1.25.9-2.58,1a14.46,14.46,0,0,1-4.76-.67A239.52,239.52,0,0,0,430,67.31l-3.18-.12-3.24.28c7.52,1.07,15,2.35,22.3,4.06,1.82.45,3.66.81,5.45,1.35l5.39,1.51c3.53,1.18,7.07,2.29,10.48,3.71,1.2.39,2.1,1.1,2,1.56s-1.23.51-2.42.12C454.25,76.47,441.4,75,428.25,74.1S401.5,72.85,387.48,71l-7.06.36-6.79.4L360,72.57c1.1.23,2.22.44,3.34.64q5.34.93,10.54,1.57c1.73.22,3.46.42,5.18.6l5.39.54c3.72.38,7.32.51,10.91.64s7.07.09,10.5,0c6.9-.08,13.61-.33,20.29-.27a134.91,134.91,0,0,1,20.11,1.4c.68.07,1.2.38,1.24.63s-.48.4-1.16.27a137.3,137.3,0,0,0-19.48-1.08c-6.48,0-13.11.27-20.13.24l-4.36,0L398,77.68c-2.89,0-5.84-.17-8.75-.26s-5.93-.36-8.74-.49q-4-.18-7.94-.27c2.63.38,5.26.74,7.88,1.06,2.79.34,5.77.74,8.59,1,5.68.48,11.28.75,16.67.87,10.85.28,21.21.23,31.35,1.24a4.81,4.81,0,0,1,2.27.62.73.73,0,0,1,.55-.25,56.45,56.45,0,0,1,8.23,0,1.92,1.92,0,0,1,1.4.58C449.73,82,449.37,82.19,448.76,82.19Zm-374.27-51-.56-.25,1.94.38,2.77,1.8ZM41.61,40.45h0l-1.61-1Zm214.18-20.2c-11.65-.8-23.14-1.53-34.61-3.22h8.44q6.52.69,13.07,1.44C247.05,19,251.42,19.64,255.79,20.25Zm-204.18,5a40.58,40.58,0,0,1,7.84,3.06,43.54,43.54,0,0,1,6.15-.64c2.83-.11,5.63-.18,8.39-.23s5.52,0,8.25,0c-.75-.64.56-.63,1.22-.75l2-.27-17.61-.62C62.54,25.63,56.73,25.69,51.61,25.24ZM11.46,30.83,11,30.62l1-1.11ZM9.9,32.69l.84.07C10.47,33.17,10.19,33.05,9.9,32.69Zm7.68.68a5,5,0,0,0-1.12-.46Zm7.66,29.56,2.54-5.32L25,62.75Z" fill="#26008a"/><path d="M55.5,53.25l3.08-9.49a37.83,37.83,0,0,1,2.16-5,2.35,2.35,0,0,0-.6.29,8.26,8.26,0,0,1-2.59.73q-1.08,0-1.08-.81a6.18,6.18,0,0,1,.84-2.51A9.64,9.64,0,0,1,59,34a13.85,13.85,0,0,1,5.87-2.8,35.26,35.26,0,0,1,8.82-1,25.65,25.65,0,0,1,5.34.5A13.33,13.33,0,0,1,83.1,32.2a7.33,7.33,0,0,1,2.57,2.38,5.72,5.72,0,0,1,.89,3.11,8.93,8.93,0,0,1-1,4.28,11.11,11.11,0,0,1-3.16,3.5,13.76,13.76,0,0,1-4.54,2.38A5.18,5.18,0,0,1,77,48v.14q9.25,1.19,9.25,7.64a9,9,0,0,1-.43,2.69,12.07,12.07,0,0,1-1.27,2.74,12.33,12.33,0,0,1-2,2.46,33.64,33.64,0,0,1-5.95,4.56,39.88,39.88,0,0,1-6.92,3.4,17.64,17.64,0,0,1-6,1.29,16.83,16.83,0,0,1-4-.47,9.56,9.56,0,0,1-3.05-1.26,2.11,2.11,0,0,1-1.13-1.67A2.77,2.77,0,0,1,56.06,68a9.74,9.74,0,0,1,1.7-1.77l-.1-.1a4.16,4.16,0,0,1-1.4.26,3.3,3.3,0,0,1-2.35-.84,3,3,0,0,1-.89-2.3,21.41,21.41,0,0,1,.74-3.8Q54.5,56.44,55.5,53.25ZM67,49.8c-.07.23-.14.48-.21.77s-.14.54-.21.79q-1.26,4.19-2.29,6.8a27.67,27.67,0,0,1-2.2,4.43,12.68,12.68,0,0,1-1.9,2.34c2.12.65,3.64,1.07,4.55,1.27a13,13,0,0,0,2.7.29A7.77,7.77,0,0,0,70.19,66a6.77,6.77,0,0,0,2.26-1.49A12.29,12.29,0,0,0,75,60.9a9.75,9.75,0,0,0,1-4.09,5,5,0,0,0-1.5-3.66A5.49,5.49,0,0,0,72.81,52a11.53,11.53,0,0,0-2.52-.66,10.08,10.08,0,0,1-2.05-.55A4,4,0,0,1,67,49.8Zm3.94-13.56L67.58,47.79a3.36,3.36,0,0,0,.63.06,5.82,5.82,0,0,0,3.23-1.3A14,14,0,0,0,75,43.11a6.25,6.25,0,0,0,1.27-3.57q0-3.61-3.8-3.61A3,3,0,0,0,70.94,36.24Z" fill="#fff"/><path d="M106.25,40.07c2.62,0,3.93.31,3.93.92s-.59,1.08-1.77,1.13a8.9,8.9,0,0,0-4,1.22,11.39,11.39,0,0,0-3.28,2.95,14.7,14.7,0,0,0-2.24,4.22,15.08,15.08,0,0,0-.81,5,7.35,7.35,0,0,0,1.35,4.62A4.22,4.22,0,0,0,103,61.85a4.31,4.31,0,0,0,3.5-2.06A7.93,7.93,0,0,0,108,55a9.7,9.7,0,0,0-.94-4.2,8.72,8.72,0,0,0-2.73-3.31c-.51-.41-.76-.7-.76-.87s.36-.63,1.08-1.14a13,13,0,0,1,2.71-1.37,7.62,7.62,0,0,1,2.53-.55,4.45,4.45,0,0,1,2.26.62A5.93,5.93,0,0,1,114,45.94a8.55,8.55,0,0,1,1.26,2.63,11.31,11.31,0,0,1,.43,3.18,15.27,15.27,0,0,1-1,5.52,12.52,12.52,0,0,1-2.77,4.42,17.9,17.9,0,0,1-5.34,3.49,14.86,14.86,0,0,1-6,1.36,16.36,16.36,0,0,1-5.44-1,11.53,11.53,0,0,1-4.29-2.5,8.13,8.13,0,0,1-2.11-6A13.81,13.81,0,0,1,90.25,51a20.1,20.1,0,0,1,4.07-5.55A20.37,20.37,0,0,1,100,41.51,14.7,14.7,0,0,1,106.25,40.07Z" fill="#fff"/><path d="M126.05,58.55l-.1.53a11.46,11.46,0,0,1-.11,1.29,14.52,14.52,0,0,1-.29,2.11,3.76,3.76,0,0,1-.55,1.36A7.54,7.54,0,0,1,124,65a5.79,5.79,0,0,1-3.88,1.77,2.59,2.59,0,0,1-2.33-1.16,7.11,7.11,0,0,1-.75-3.74,34.27,34.27,0,0,1,.46-5.08,46.32,46.32,0,0,1,1.12-5.42l.21-.68A2.61,2.61,0,0,1,119,50a35.59,35.59,0,0,1,1.79-5.32,8.68,8.68,0,0,1,2-2.78,3.64,3.64,0,0,1,2.32-.81c1.25,0,2,.75,2.27,2.26a6.18,6.18,0,0,0,.71-.73,7.46,7.46,0,0,1,1.18-1.23,1.67,1.67,0,0,1,1-.3q2.26,0,2.27,4.48a21.13,21.13,0,0,1-.53,4.74,14.74,14.74,0,0,1-1.33,3.75c-.54,1-1.07,1.45-1.6,1.45s-.87-1.1-.87-3.3a14,14,0,0,0-.2-2.73,3.78,3.78,0,0,0-.61-1.54q-.8,1.48-1,6.75C126.19,56.74,126.11,58,126.05,58.55Z" fill="#fff"/><path d="M152.21,42.47l.26-1.08q.83-3.62,1.48-5.84a28.37,28.37,0,0,1,1.36-3.77,7.42,7.42,0,0,1,1.38-2.23c.74-.79,2.07-1.19,4-1.19a9.7,9.7,0,0,1,1.89.13,2.09,2.09,0,0,1,1,.48q-1.28,3.93-1.75,5.89t-1.07,5.39a64.21,64.21,0,0,0-.9,10.1,40.34,40.34,0,0,0,.49,6.18,58.22,58.22,0,0,0,1.59,7.14,27.64,27.64,0,0,1-2.67,1.66,17.19,17.19,0,0,1-2.43,1.08,6.38,6.38,0,0,1-2,.39,2.2,2.2,0,0,1-2.16-1.5,10.89,10.89,0,0,1-.68-2c-.11-.5-.29-1.89-.56-4.18a39.7,39.7,0,0,1-6.76,5.81q-3.23,2.13-5.16,2.13a4.39,4.39,0,0,1-3.62-1.81,7.32,7.32,0,0,1-1.41-4.65,17.28,17.28,0,0,1,1.09-5.68,27.87,27.87,0,0,1,3-6.06,21,21,0,0,1,2.6-3.25,20.13,20.13,0,0,1,3-2.47,10.06,10.06,0,0,1,5.11-2A6.07,6.07,0,0,1,152.21,42.47ZM151.39,55V53.46a3.86,3.86,0,0,1-2,1.19.32.32,0,0,1-.37-.37,2.61,2.61,0,0,1,.16-.66,9.17,9.17,0,0,0,.55-3.06,12,12,0,0,0-.92-4.43c-.26-.79-.59-1.18-1-1.18a.54.54,0,0,0-.47.26A10.82,10.82,0,0,0,145.7,48a23.93,23.93,0,0,0-1.31,4,16.69,16.69,0,0,0-.51,3.81c0,2.09.63,3.13,1.9,3.13a4.94,4.94,0,0,0,2.54-1.12A16.26,16.26,0,0,0,151.39,55Z" fill="#fff"/><path d="M174.73,59.24a1.83,1.83,0,0,0,2.05,1.58q2,0,5.15-2.32a6.06,6.06,0,0,1,2.47-1.35,2.71,2.71,0,0,1,1.48.43q.69.42.69.87a2.12,2.12,0,0,1-.77,1.24,26.94,26.94,0,0,1-3.21,2.72,28.72,28.72,0,0,1-3.51,2.22A20.16,20.16,0,0,1,175.7,66a10.47,10.47,0,0,1-3,.51,7.37,7.37,0,0,1-5.28-1.88,6.66,6.66,0,0,1-2-5,16.71,16.71,0,0,1,1-5.42,24.23,24.23,0,0,1,2.81-5.65,18.8,18.8,0,0,1,5.11-5.14,13,13,0,0,1,7.17-2.48,5,5,0,0,1,3.89,1.57,6.2,6.2,0,0,1,1.41,4.31,10.16,10.16,0,0,1-1.12,4.45,16,16,0,0,1-3.31,4.46,17.31,17.31,0,0,1-3.52,2.8,6.29,6.29,0,0,1-3,1A2.77,2.77,0,0,1,174.73,59.24Zm-.06-.85a7.85,7.85,0,0,0,1.85-1.63,12.7,12.7,0,0,0,2.16-3.93,16.22,16.22,0,0,0,.95-3.24,17.78,17.78,0,0,0,.34-3.35c0-1-.2-1.45-.6-1.45q-.85,0-2.59,3.72A32.82,32.82,0,0,0,175.11,53a14.23,14.23,0,0,0-.65,3.84A8.46,8.46,0,0,0,174.67,58.39Z" fill="#fff"/><path d="M197.56,58.55l-.1.53a11.46,11.46,0,0,1-.11,1.29,16.06,16.06,0,0,1-.29,2.11,4,4,0,0,1-.55,1.36,7.54,7.54,0,0,1-1,1.14,5.79,5.79,0,0,1-3.88,1.77,2.58,2.58,0,0,1-2.33-1.16,7.09,7.09,0,0,1-.76-3.74,34.46,34.46,0,0,1,.47-5.08,46.32,46.32,0,0,1,1.12-5.42l.21-.68a2.61,2.61,0,0,1,.16-.66,33.4,33.4,0,0,1,1.79-5.32,8.68,8.68,0,0,1,2-2.78,3.62,3.62,0,0,1,2.32-.81c1.24,0,2,.75,2.26,2.26a5.54,5.54,0,0,0,.72-.73,7.46,7.46,0,0,1,1.18-1.23,1.65,1.65,0,0,1,1-.3q2.27,0,2.27,4.48a21.13,21.13,0,0,1-.53,4.74,14.74,14.74,0,0,1-1.33,3.75c-.54,1-1.07,1.45-1.6,1.45s-.87-1.1-.87-3.3a14,14,0,0,0-.2-2.73,3.78,3.78,0,0,0-.62-1.54c-.52,1-.87,3.24-1,6.75C197.7,56.74,197.61,58,197.56,58.55Z" fill="#fff"/><path d="M229,36.4l.37-.92a6.78,6.78,0,0,0-1.47.14,12.35,12.35,0,0,0-1.43.47,5.18,5.18,0,0,1-1.37.37.94.94,0,0,1-.74-.35,1.28,1.28,0,0,1-.29-.84,3.55,3.55,0,0,1,.83-2.12A4.55,4.55,0,0,1,227,31.6a18.67,18.67,0,0,1,4.07-1,31.93,31.93,0,0,1,4.95-.38,28.52,28.52,0,0,1,5,.39,14.32,14.32,0,0,1,3.92,1.27,11.78,11.78,0,0,1,3,2.16,9,9,0,0,1,2,3,9.62,9.62,0,0,1,.7,3.63,13.05,13.05,0,0,1-.7,3.91A20.48,20.48,0,0,1,248,48.8a17,17,0,0,1-2.72,3.48,14.58,14.58,0,0,1-4.33,2.8,12,12,0,0,1-4.79,1.15,3.72,3.72,0,0,1-1.62-.33c-.47-.22-.7-.49-.7-.8a2.1,2.1,0,0,1,.55-1.39,9.87,9.87,0,0,1,2-1.59,13,13,0,0,0,2.38-1.77,9.71,9.71,0,0,0,1.94-3.08,11.11,11.11,0,0,0,.61-3.91,8.26,8.26,0,0,0-.73-3.66,7.37,7.37,0,0,0-2.4-2.69l-3.61,11.71-.66,2.05q-.42,1.21-1.14,4.17A31.67,31.67,0,0,1,230.34,62a9.36,9.36,0,0,1-1.29,1.71,12.32,12.32,0,0,1-3.21,1.94,8.78,8.78,0,0,1-3.33.83A2,2,0,0,1,221,66a2.06,2.06,0,0,1-.54-1.52,13.8,13.8,0,0,1,.54-3.16q.54-2.09,2.23-7.46l.47-1.48.51-1.61Z" fill="#fff"/><path d="M266.3,58.92V59l-.1-.11a50,50,0,0,1-4.5,4.71,19.6,19.6,0,0,1-3.77,2.75,6.78,6.78,0,0,1-3.18.93,6.53,6.53,0,0,1-4.88-2,6.9,6.9,0,0,1-1.92-5,13.1,13.1,0,0,1,1-4.43,23.07,23.07,0,0,1,2.61-5,25.48,25.48,0,0,1,7-6.8,15.09,15.09,0,0,1,8.33-2.88,10.11,10.11,0,0,1,5.55,1.39,4.06,4.06,0,0,1,2.18,3.49,6.3,6.3,0,0,1-1.08,3.3,3.32,3.32,0,0,1,1.79.3c.25.2.37.67.37,1.41,0-.07-.05.29-.13,1.08-.11,1.74-.16,3.37-.16,4.88,0,.79,0,1.39,0,1.79s.06.87.11,1.4.11.95.16,1.26a12.87,12.87,0,0,0,.68,2.46,12.5,12.5,0,0,1-3,2.28,6.55,6.55,0,0,1-2.95.72q-4.06,0-4.06-6.8C266.25,59.63,266.27,59.22,266.3,58.92Zm1.58-6-.5.16a11.86,11.86,0,0,1-2.74.53c-.69,0-1-.18-1-.53a3.39,3.39,0,0,1,.42-1,7.76,7.76,0,0,0,1.48-4.22,5.13,5.13,0,0,0-.4-2.07c-.26-.63-.55-.94-.87-.94s-.71.3-1.29.9a25.09,25.09,0,0,0-3.89,5.45,11.14,11.14,0,0,0-1.43,5,4.43,4.43,0,0,0,.59,2.4,1.74,1.74,0,0,0,1.49,1c.51,0,1.46-.55,2.86-1.64a47.31,47.31,0,0,0,4.71-4.32L268,53Z" fill="#fff"/><path d="M281.91,66.86a3.33,3.33,0,0,1-2.16-1.08,6.38,6.38,0,0,1-1.39-2.28,10.4,10.4,0,0,1-.4-3.18,35,35,0,0,1,1.62-9.82q1.62-5.47,3.67-7.93a2.76,2.76,0,0,1,2.27-1,2.87,2.87,0,0,1,2.47,1.4,6.53,6.53,0,0,1,.93,3.67,38.25,38.25,0,0,1-1,7.84,74.69,74.69,0,0,1-2.71,9.35,5.22,5.22,0,0,1-1.69,2.64,3,3,0,0,1-1.6.42Zm3.16-26.5c-1.65,0-2.47-1-2.47-3a9.69,9.69,0,0,1,.72-3.36A7.93,7.93,0,0,1,285,31.18a3.12,3.12,0,0,1,1-.71,3.2,3.2,0,0,1,1.25-.21,2.58,2.58,0,0,1,1.94.65,3,3,0,0,1,.62,2.14,9.8,9.8,0,0,1-.64,3.55,7.57,7.57,0,0,1-1.73,2.72,3.22,3.22,0,0,1-2.22,1Z" fill="#fff"/><path d="M302.84,52.69l1.59-1.85c1.6-1.78,2.88-3.11,3.82-4A12.17,12.17,0,0,1,310.77,45a5,5,0,0,1,2.28-.58,3.15,3.15,0,0,1,2.64,1,5.93,5.93,0,0,1,.76,3.48c0,.69-.07,1.7-.21,3a42.68,42.68,0,0,0-.32,5,27.26,27.26,0,0,0,.27,4.27,11.46,11.46,0,0,0,.55,2,5.91,5.91,0,0,1,.27,1.29.78.78,0,0,1-.32.66,7.35,7.35,0,0,1-2.16,1.24,6.55,6.55,0,0,1-2.27.53,4.13,4.13,0,0,1-2.73-1,6.53,6.53,0,0,1-1.9-2.85,11.73,11.73,0,0,1-.67-4.11,23.36,23.36,0,0,1,.32-3.61l-.11-.11c-.76.85-1.37,1.51-1.83,2L304,58.6q-3,3.38-5,6.09c-.52.71-1,1.32-1.45,1.85a3.06,3.06,0,0,1-2.21,1,3.4,3.4,0,0,1-2.74-1.27A4.89,4.89,0,0,1,291.56,63a19.8,19.8,0,0,1,.29-3c.19-1.2.45-2.47.78-3.84s.71-2.76,1.16-4.2.93-2.82,1.46-4.12a14.7,14.7,0,0,1,3-5.06,3.92,3.92,0,0,1,2.87-1.19q2.75,0,2.74,3.56a36.8,36.8,0,0,1-1.09,7.48Z" fill="#fff"/><path d="M324.07,41.1l.11-.32a37.64,37.64,0,0,1,3-6.91,5.9,5.9,0,0,1,1.69-1.69,7.2,7.2,0,0,1,3.82-1.29,2.38,2.38,0,0,1,1.61.48,1.69,1.69,0,0,1,.56,1.37,8.53,8.53,0,0,1-.8,2.48,36.1,36.1,0,0,0-2,5.82,7.88,7.88,0,0,1,.87.16,6.65,6.65,0,0,1,2.08.54,1.17,1.17,0,0,1,.5,1.1,4.87,4.87,0,0,1-.71,2.58,4.29,4.29,0,0,1-1.87,1.74,8.64,8.64,0,0,1-2.82.53c-.22.68-.48,1.63-.75,2.82s-.33,2.52-.52,4.38a12.21,12.21,0,0,0-.16,1.92q0,4.17,4,4.17H333c.32,0,.47.05.47.16,0,.28-.29.75-.89,1.42a11.84,11.84,0,0,1-2,1.77A10.68,10.68,0,0,1,328,65.59a7.67,7.67,0,0,1-2.49.48,5.83,5.83,0,0,1-4.5-1.88,7,7,0,0,1-1.73-4.95,17.07,17.07,0,0,1,.46-3.46q.47-2.13,1.44-5.72c.1-.42.22-.86.34-1.33s.19-.74.21-.83a2.27,2.27,0,0,1-1.5-.45,1.81,1.81,0,0,1-.45-1.37,4.75,4.75,0,0,1,1.28-3.14A5.39,5.39,0,0,1,324.07,41.1Z" fill="#fff"/><path d="M346.8,59.24a1.83,1.83,0,0,0,2.06,1.58c1.31,0,3-.77,5.14-2.32a6,6,0,0,1,2.48-1.35,2.68,2.68,0,0,1,1.47.43q.69.42.69.87a2.12,2.12,0,0,1-.77,1.24,26.94,26.94,0,0,1-3.21,2.72,28,28,0,0,1-3.51,2.22,20.06,20.06,0,0,1-3.37,1.4,10.58,10.58,0,0,1-3,.51,7.32,7.32,0,0,1-5.27-1.88,6.63,6.63,0,0,1-2-5,17,17,0,0,1,1-5.42,24.23,24.23,0,0,1,2.81-5.65,18.94,18.94,0,0,1,5.11-5.14,13,13,0,0,1,7.18-2.48,5,5,0,0,1,3.89,1.57A6.25,6.25,0,0,1,359,46.82a10.18,10.18,0,0,1-1.13,4.45,15.93,15.93,0,0,1-3.3,4.46,17.58,17.58,0,0,1-3.52,2.8,6.36,6.36,0,0,1-3,1A2.78,2.78,0,0,1,346.8,59.24Zm-.05-.85a8,8,0,0,0,1.84-1.63,12.93,12.93,0,0,0,2.17-3.93,16.22,16.22,0,0,0,.94-3.24,17.84,17.84,0,0,0,.35-3.35c0-1-.21-1.45-.61-1.45q-.84,0-2.58,3.72A31.61,31.61,0,0,0,347.18,53a14.17,14.17,0,0,0-.64,3.84A8.46,8.46,0,0,0,346.75,58.39Z" fill="#fff"/><path d="M369.63,58.55l-.1.53a11.46,11.46,0,0,1-.11,1.29,14.52,14.52,0,0,1-.29,2.11,3.76,3.76,0,0,1-.55,1.36,7.54,7.54,0,0,1-1,1.14,5.79,5.79,0,0,1-3.88,1.77,2.59,2.59,0,0,1-2.33-1.16,7.11,7.11,0,0,1-.75-3.74,34.27,34.27,0,0,1,.46-5.08,46.32,46.32,0,0,1,1.12-5.42l.21-.68a2.61,2.61,0,0,1,.16-.66,35.59,35.59,0,0,1,1.79-5.32,8.84,8.84,0,0,1,2-2.78,3.64,3.64,0,0,1,2.32-.81c1.25,0,2,.75,2.27,2.26a6.18,6.18,0,0,0,.71-.73,7.46,7.46,0,0,1,1.18-1.23,1.67,1.67,0,0,1,1-.3q2.26,0,2.27,4.48a21.13,21.13,0,0,1-.53,4.74,14.74,14.74,0,0,1-1.33,3.75c-.54,1-1.07,1.45-1.6,1.45s-.87-1.1-.87-3.3a14.94,14.94,0,0,0-.19-2.73,3.93,3.93,0,0,0-.62-1.54q-.8,1.48-1,6.75C369.77,56.74,369.69,58,369.63,58.55Z" fill="#fff"/><path d="M72.66,120a.58.58,0,0,1,.42.18l1.16,1.27a6.42,6.42,0,0,1-2.38,1.84,8.27,8.27,0,0,1-3.39.63,8.1,8.1,0,0,1-3.19-.6,7,7,0,0,1-2.41-1.68A7.42,7.42,0,0,1,61.33,119a9.79,9.79,0,0,1-.53-3.27,8.9,8.9,0,0,1,.59-3.28,7.64,7.64,0,0,1,1.68-2.57,7.28,7.28,0,0,1,2.57-1.67,8.91,8.91,0,0,1,3.32-.6,7.83,7.83,0,0,1,3.1.56,7.36,7.36,0,0,1,2.27,1.5l-1,1.38a.84.84,0,0,1-.23.23.59.59,0,0,1-.38.1.87.87,0,0,1-.51-.2c-.18-.13-.4-.27-.67-.43a5.71,5.71,0,0,0-1-.43,5.38,5.38,0,0,0-1.58-.2,5.48,5.48,0,0,0-2.06.39,4.75,4.75,0,0,0-1.62,1.12,5.28,5.28,0,0,0-1.06,1.77,6.82,6.82,0,0,0-.38,2.33,7.05,7.05,0,0,0,.38,2.39,5.31,5.31,0,0,0,1,1.76,4.5,4.5,0,0,0,1.53,1.1,4.8,4.8,0,0,0,1.89.38,9,9,0,0,0,1.1-.07,4.09,4.09,0,0,0,.9-.21,3.72,3.72,0,0,0,.78-.37,4.5,4.5,0,0,0,.73-.55,1.06,1.06,0,0,1,.23-.16A.6.6,0,0,1,72.66,120Z" fill="#26008a"/><path d="M78.81,112.42v7.17a2.39,2.39,0,0,0,.47,1.6,1.78,1.78,0,0,0,1.44.57,2.85,2.85,0,0,0,1.32-.31,4.68,4.68,0,0,0,1.17-.87v-8.16h2.71v11.29H84.26a.67.67,0,0,1-.69-.5l-.19-.9a7,7,0,0,1-.72.64,4.45,4.45,0,0,1-.8.5,5.14,5.14,0,0,1-.91.32,4.48,4.48,0,0,1-1.06.11,4,4,0,0,1-1.63-.31,3.19,3.19,0,0,1-1.19-.89,3.82,3.82,0,0,1-.73-1.35,5.67,5.67,0,0,1-.25-1.74v-7.17Z" fill="#26008a"/><path d="M95.53,114.62a.81.81,0,0,1-.23.25.62.62,0,0,1-.31.07,1,1,0,0,1-.43-.11l-.52-.25a4.46,4.46,0,0,0-.68-.24,3,3,0,0,0-.89-.11,2.08,2.08,0,0,0-1.27.34,1,1,0,0,0-.46.89.85.85,0,0,0,.24.61,2,2,0,0,0,.62.43,5.71,5.71,0,0,0,.89.34l1,.32c.35.12.68.25,1,.4a3.33,3.33,0,0,1,.89.58A2.61,2.61,0,0,1,96,119a2.73,2.73,0,0,1,.23,1.16,3.65,3.65,0,0,1-.3,1.5,3.17,3.17,0,0,1-.86,1.19,4,4,0,0,1-1.42.78,6,6,0,0,1-1.93.28,6.12,6.12,0,0,1-1.14-.1,7.18,7.18,0,0,1-1.06-.29,6.38,6.38,0,0,1-1-.44,4.5,4.5,0,0,1-.76-.55l.62-1a.86.86,0,0,1,.29-.28.77.77,0,0,1,.42-.1.92.92,0,0,1,.48.14c.15.1.32.2.52.31a5.2,5.2,0,0,0,.7.31,3.15,3.15,0,0,0,1,.14,2.51,2.51,0,0,0,.83-.12,1.51,1.51,0,0,0,.58-.3,1.13,1.13,0,0,0,.33-.43,1.32,1.32,0,0,0,.1-.51.9.9,0,0,0-.24-.65,1.86,1.86,0,0,0-.62-.44,5.71,5.71,0,0,0-.89-.34l-1-.32a10,10,0,0,1-1-.42,3.36,3.36,0,0,1-.89-.59,2.8,2.8,0,0,1-.63-.9,3.2,3.2,0,0,1-.23-1.27,3.32,3.32,0,0,1,.27-1.32,3.21,3.21,0,0,1,.81-1.1,4,4,0,0,1,1.33-.74,5.47,5.47,0,0,1,1.84-.28,5.61,5.61,0,0,1,2.13.38,4.82,4.82,0,0,1,1.59,1Z" fill="#26008a"/><path d="M102.15,123.88a3,3,0,0,1-2.26-.83,3.17,3.17,0,0,1-.79-2.29v-6.3H98a.53.53,0,0,1-.54-.58v-1.07l1.81-.3.57-3.08a.53.53,0,0,1,.21-.34.63.63,0,0,1,.4-.12h1.41v3.55h3v1.94h-3v6.11a1.25,1.25,0,0,0,.26.83.89.89,0,0,0,.71.29,1.29,1.29,0,0,0,.42-.06l.3-.12.22-.13a.39.39,0,0,1,.2-.06.32.32,0,0,1,.2.06,1,1,0,0,1,.16.18l.82,1.32a4.14,4.14,0,0,1-1.37.75A5,5,0,0,1,102.15,123.88Z" fill="#26008a"/><path d="M111.77,112.25a6.24,6.24,0,0,1,2.3.4,4.92,4.92,0,0,1,1.75,1.16,5.08,5.08,0,0,1,1.12,1.82,7.49,7.49,0,0,1,0,4.83,5.26,5.26,0,0,1-1.12,1.84,4.94,4.94,0,0,1-1.75,1.17,6.81,6.81,0,0,1-4.6,0,5,5,0,0,1-1.76-1.17,5.3,5.3,0,0,1-1.14-1.84,7.49,7.49,0,0,1,0-4.83,5.12,5.12,0,0,1,1.14-1.82,5,5,0,0,1,1.76-1.16A6.28,6.28,0,0,1,111.77,112.25Zm0,9.53a2.4,2.4,0,0,0,2.09-.94,4.76,4.76,0,0,0,.67-2.77,4.83,4.83,0,0,0-.67-2.79,2.38,2.38,0,0,0-2.09-1,2.43,2.43,0,0,0-2.11,1,4.81,4.81,0,0,0-.68,2.78,4.72,4.72,0,0,0,.68,2.76A2.41,2.41,0,0,0,111.77,121.78Z" fill="#26008a"/><path d="M119.46,123.71V112.42h1.66a.66.66,0,0,1,.69.5l.18.83a7,7,0,0,1,.62-.6,4.5,4.5,0,0,1,.69-.48,4,4,0,0,1,.8-.31,3.39,3.39,0,0,1,.93-.11,2.65,2.65,0,0,1,1.75.57,3.52,3.52,0,0,1,1,1.54,3.4,3.4,0,0,1,.66-1,3.45,3.45,0,0,1,.87-.66,3.81,3.81,0,0,1,1-.37,4.81,4.81,0,0,1,1.07-.12,4.55,4.55,0,0,1,1.66.28,3.18,3.18,0,0,1,1.22.84,3.57,3.57,0,0,1,.75,1.34,5.63,5.63,0,0,1,.26,1.82v7.18h-2.72v-7.18a2.42,2.42,0,0,0-.47-1.63,1.74,1.74,0,0,0-1.38-.54,2.21,2.21,0,0,0-.78.14,1.91,1.91,0,0,0-.63.41,1.87,1.87,0,0,0-.42.68,2.69,2.69,0,0,0-.15.94v7.18H126v-7.18a2.46,2.46,0,0,0-.46-1.66,1.71,1.71,0,0,0-1.35-.51,2.12,2.12,0,0,0-1.09.29,3.52,3.52,0,0,0-.95.8v8.26Z" fill="#26008a"/><path d="M142.38,123.71V107.8h5.49a10.34,10.34,0,0,1,2.67.3,5.12,5.12,0,0,1,1.82.85,3.27,3.27,0,0,1,1,1.33,4.45,4.45,0,0,1,.32,1.76,3.47,3.47,0,0,1-.16,1.07,3.18,3.18,0,0,1-.51,1,4,4,0,0,1-.88.8,5.18,5.18,0,0,1-1.27.62c2.18.49,3.28,1.67,3.28,3.54a4.44,4.44,0,0,1-.39,1.87,4,4,0,0,1-1.12,1.48,5.36,5.36,0,0,1-1.82,1,8,8,0,0,1-2.46.35Zm3-9h2.37a4,4,0,0,0,2.29-.55,2,2,0,0,0,.78-1.75,2.07,2.07,0,0,0-.71-1.77,3.69,3.69,0,0,0-2.2-.53h-2.53Zm0,2v4.67h3a4.19,4.19,0,0,0,1.38-.2,2.42,2.42,0,0,0,.89-.53,2,2,0,0,0,.48-.77,2.83,2.83,0,0,0,.15-.93,2.45,2.45,0,0,0-.16-.93,1.92,1.92,0,0,0-.52-.71,2.52,2.52,0,0,0-.9-.44,4.7,4.7,0,0,0-1.33-.16Z" fill="#26008a"/><path d="M161.38,112.25a6.18,6.18,0,0,1,2.29.4,4.87,4.87,0,0,1,1.76,1.16,5.08,5.08,0,0,1,1.12,1.82,7.49,7.49,0,0,1,0,4.83,5.26,5.26,0,0,1-1.12,1.84,4.89,4.89,0,0,1-1.76,1.17,6.18,6.18,0,0,1-2.29.4,6.28,6.28,0,0,1-2.3-.4,4.89,4.89,0,0,1-1.76-1.17,5.3,5.3,0,0,1-1.14-1.84,7.49,7.49,0,0,1,0-4.83,5.12,5.12,0,0,1,1.14-1.82,4.87,4.87,0,0,1,1.76-1.16A6.28,6.28,0,0,1,161.38,112.25Zm0,9.53a2.41,2.41,0,0,0,2.09-.94,4.76,4.76,0,0,0,.67-2.77,4.83,4.83,0,0,0-.67-2.79,2.77,2.77,0,0,0-4.2,0,4.74,4.74,0,0,0-.68,2.78,4.65,4.65,0,0,0,.68,2.76A2.4,2.4,0,0,0,161.38,121.78Z" fill="#26008a"/><path d="M169.07,123.71V112.42h1.6a.82.82,0,0,1,.58.16.87.87,0,0,1,.22.52l.16,1.37a5.41,5.41,0,0,1,1.42-1.65,2.94,2.94,0,0,1,1.83-.61,2.3,2.3,0,0,1,1.38.39l-.35,2a.42.42,0,0,1-.14.28.45.45,0,0,1-.3.09,1.94,1.94,0,0,1-.45-.08,3,3,0,0,0-.76-.08,2.31,2.31,0,0,0-1.45.47,3.64,3.64,0,0,0-1,1.37v7Z" fill="#26008a"/><path d="M186,123.71a.67.67,0,0,1-.69-.5l-.22-1.09a6.25,6.25,0,0,1-.74.72,5.19,5.19,0,0,1-.83.55,5,5,0,0,1-1,.36,4.82,4.82,0,0,1-1.1.12,3.85,3.85,0,0,1-1.7-.38,3.8,3.8,0,0,1-1.32-1.12,5.34,5.34,0,0,1-.86-1.81,9.21,9.21,0,0,1-.3-2.46,7.54,7.54,0,0,1,.34-2.33,5.38,5.38,0,0,1,1-1.87,4.41,4.41,0,0,1,3.53-1.69,3.73,3.73,0,0,1,1.61.31,4.27,4.27,0,0,1,1.2.8v-6h2.72v16.35Zm-3.62-2a2.72,2.72,0,0,0,1.44-.36,4,4,0,0,0,1.12-1V115.3a2.79,2.79,0,0,0-1-.79,3.09,3.09,0,0,0-1.17-.23,2.67,2.67,0,0,0-1.12.23,2.21,2.21,0,0,0-.85.7,3.35,3.35,0,0,0-.53,1.19,6.53,6.53,0,0,0-.19,1.7,7.36,7.36,0,0,0,.16,1.68,3.4,3.4,0,0,0,.46,1.12,1.64,1.64,0,0,0,.72.62A2.32,2.32,0,0,0,182.38,121.72Z" fill="#26008a"/><path d="M195.26,112.25a5.38,5.38,0,0,1,2,.34,4.25,4.25,0,0,1,1.55,1,4.55,4.55,0,0,1,1,1.61,6.09,6.09,0,0,1,.36,2.17,3.71,3.71,0,0,1,0,.51.8.8,0,0,1-.1.32.44.44,0,0,1-.19.17.91.91,0,0,1-.31,0h-7a4,4,0,0,0,.94,2.55,2.91,2.91,0,0,0,2.15.81,3.75,3.75,0,0,0,1.14-.15,5.63,5.63,0,0,0,.84-.34l.63-.34a1,1,0,0,1,.52-.16.57.57,0,0,1,.29.07.49.49,0,0,1,.2.18l.8,1a4.49,4.49,0,0,1-1,.88,5.28,5.28,0,0,1-1.17.57,5.34,5.34,0,0,1-1.24.3,8.69,8.69,0,0,1-1.23.09,6.08,6.08,0,0,1-2.19-.39,4.93,4.93,0,0,1-1.76-1.15,5.45,5.45,0,0,1-1.17-1.89,7.31,7.31,0,0,1-.43-2.62,6.22,6.22,0,0,1,.37-2.17,5.14,5.14,0,0,1,1.08-1.77,5,5,0,0,1,1.7-1.19A5.51,5.51,0,0,1,195.26,112.25Zm.06,1.94a2.52,2.52,0,0,0-1.86.67,3.27,3.27,0,0,0-.86,1.91h5.1a3.22,3.22,0,0,0-.14-1,2.4,2.4,0,0,0-.44-.82,2.09,2.09,0,0,0-.75-.55A2.46,2.46,0,0,0,195.32,114.19Z" fill="#26008a"/><path d="M202.36,123.71V112.42H204a.81.81,0,0,1,.58.16.81.81,0,0,1,.22.52l.17,1.37a5.28,5.28,0,0,1,1.42-1.65,2.94,2.94,0,0,1,1.82-.61,2.35,2.35,0,0,1,1.39.39l-.35,2a.38.38,0,0,1-.15.28.44.44,0,0,1-.29.09,1.94,1.94,0,0,1-.45-.08,3.1,3.1,0,0,0-.76-.08,2.29,2.29,0,0,0-1.45.47,3.56,3.56,0,0,0-1,1.37v7Z" fill="#26008a"/><path d="M219.08,123.71h-3V107.8h3Z" fill="#26008a"/><path d="M222.5,123.71V112.42h1.66a.67.67,0,0,1,.69.5l.18.83a5,5,0,0,1,.62-.6,4.06,4.06,0,0,1,.69-.48,4.19,4.19,0,0,1,.79-.31,3.44,3.44,0,0,1,.93-.11,2.68,2.68,0,0,1,1.76.57,3.52,3.52,0,0,1,1,1.54,3,3,0,0,1,.66-1,3.45,3.45,0,0,1,.87-.66,3.87,3.87,0,0,1,1-.37,4.88,4.88,0,0,1,1.07-.12,4.48,4.48,0,0,1,1.66.28,3.14,3.14,0,0,1,1.23.84,3.57,3.57,0,0,1,.75,1.34,5.92,5.92,0,0,1,.26,1.82v7.18h-2.72v-7.18a2.48,2.48,0,0,0-.47-1.63,1.76,1.76,0,0,0-1.39-.54,2.11,2.11,0,0,0-.77.14,1.91,1.91,0,0,0-.63.41,1.87,1.87,0,0,0-.42.68,2.47,2.47,0,0,0-.16.94v7.18h-2.73v-7.18a2.51,2.51,0,0,0-.45-1.66,1.73,1.73,0,0,0-1.35-.51,2.1,2.1,0,0,0-1.09.29,3.56,3.56,0,0,0-1,.8v8.26Z" fill="#26008a"/><path d="M249.86,123.71h-1.22a1.28,1.28,0,0,1-.6-.12.7.7,0,0,1-.33-.47l-.24-.8c-.29.26-.57.48-.84.68a5.28,5.28,0,0,1-.86.49,4,4,0,0,1-.93.29,5.35,5.35,0,0,1-1.1.1,4.25,4.25,0,0,1-1.32-.19,2.78,2.78,0,0,1-1-.58,2.66,2.66,0,0,1-.68-1,3.43,3.43,0,0,1-.24-1.33,2.6,2.6,0,0,1,.34-1.27,3.11,3.11,0,0,1,1.11-1.12,7,7,0,0,1,2.08-.84,13.34,13.34,0,0,1,3.22-.33v-.66a2.51,2.51,0,0,0-.48-1.69,1.72,1.72,0,0,0-1.39-.55,3.48,3.48,0,0,0-1.1.15,4.13,4.13,0,0,0-.76.35l-.6.34a1.16,1.16,0,0,1-.61.16.82.82,0,0,1-.47-.14,1.22,1.22,0,0,1-.32-.36L241,114a6.74,6.74,0,0,1,4.69-1.78,4.5,4.5,0,0,1,1.77.33,3.57,3.57,0,0,1,1.31.9,3.67,3.67,0,0,1,.82,1.38,5.24,5.24,0,0,1,.28,1.76Zm-5.28-1.7a3.67,3.67,0,0,0,.77-.07,2.94,2.94,0,0,0,.67-.23,4.31,4.31,0,0,0,.61-.37,5.58,5.58,0,0,0,.58-.53v-1.89a10.93,10.93,0,0,0-2,.15,5.48,5.48,0,0,0-1.28.38,1.6,1.6,0,0,0-.69.55,1.16,1.16,0,0,0-.21.67,1.19,1.19,0,0,0,.43,1A1.79,1.79,0,0,0,244.58,122Z" fill="#26008a"/><path d="M256.44,112.22a6,6,0,0,1,1.37.15,4.73,4.73,0,0,1,1.16.44h3.25v1a.57.57,0,0,1-.13.39.73.73,0,0,1-.46.2l-1,.19a3,3,0,0,1,.17.6,3.74,3.74,0,0,1,.06.68,3.41,3.41,0,0,1-.33,1.51,3.45,3.45,0,0,1-.93,1.15,4.27,4.27,0,0,1-1.39.73,5.85,5.85,0,0,1-1.76.26,6.36,6.36,0,0,1-1.24-.12.89.89,0,0,0-.53.72.54.54,0,0,0,.31.5,2.67,2.67,0,0,0,.83.23,10.06,10.06,0,0,0,1.16.06c.43,0,.88,0,1.33.06a11.2,11.2,0,0,1,1.33.19,4.11,4.11,0,0,1,1.16.44,2.38,2.38,0,0,1,.83.81,2.48,2.48,0,0,1,.31,1.32,3.1,3.1,0,0,1-.37,1.46,3.79,3.79,0,0,1-1.06,1.25,5.53,5.53,0,0,1-1.71.89,7.19,7.19,0,0,1-2.31.34,8.7,8.7,0,0,1-2.24-.25,5.05,5.05,0,0,1-1.57-.66,2.77,2.77,0,0,1-.92-1,2.18,2.18,0,0,1-.31-1.12,1.92,1.92,0,0,1,.48-1.33,3.27,3.27,0,0,1,1.34-.86,1.82,1.82,0,0,1-.67-.62,1.77,1.77,0,0,1-.25-1,1.63,1.63,0,0,1,.09-.52,2,2,0,0,1,.27-.53,2.34,2.34,0,0,1,.45-.5,3.49,3.49,0,0,1,.65-.43,3.54,3.54,0,0,1-1.34-1.23,3.24,3.24,0,0,1-.5-1.8,3.43,3.43,0,0,1,.34-1.52,3.36,3.36,0,0,1,.94-1.15,4.29,4.29,0,0,1,1.41-.73A6,6,0,0,1,256.44,112.22Zm3,12a.78.78,0,0,0-.19-.55,1.45,1.45,0,0,0-.54-.33,3.52,3.52,0,0,0-.8-.17,7.54,7.54,0,0,0-1-.06h-1.05a4.59,4.59,0,0,1-1.06-.12,2.63,2.63,0,0,0-.74.6,1.2,1.2,0,0,0-.28.8,1.08,1.08,0,0,0,.15.55,1.36,1.36,0,0,0,.47.45,3,3,0,0,0,.84.29,6.6,6.6,0,0,0,1.27.1,6.22,6.22,0,0,0,1.31-.12,2.85,2.85,0,0,0,.91-.32,1.45,1.45,0,0,0,.52-.49A1.26,1.26,0,0,0,259.42,124.18Zm-3-6.39a2.58,2.58,0,0,0,.88-.14,1.67,1.67,0,0,0,.62-.38,1.54,1.54,0,0,0,.38-.58,2.27,2.27,0,0,0,.12-.75,1.72,1.72,0,0,0-.5-1.32,2.54,2.54,0,0,0-3,0,1.76,1.76,0,0,0-.5,1.32,2,2,0,0,0,.13.74,1.64,1.64,0,0,0,.37.59,1.71,1.71,0,0,0,.63.38A2.56,2.56,0,0,0,256.44,117.79Z" fill="#26008a"/><path d="M268.59,112.25a5.42,5.42,0,0,1,2,.34,4.33,4.33,0,0,1,1.55,1,4.55,4.55,0,0,1,1,1.61,6.09,6.09,0,0,1,.36,2.17,3.49,3.49,0,0,1,0,.51.8.8,0,0,1-.1.32.39.39,0,0,1-.19.17.87.87,0,0,1-.31,0h-7a3.92,3.92,0,0,0,.93,2.55,3,3,0,0,0,2.16.81,3.84,3.84,0,0,0,1.14-.15,5.09,5.09,0,0,0,.83-.34l.63-.34a1,1,0,0,1,.52-.16.54.54,0,0,1,.29.07.6.6,0,0,1,.21.18l.79,1a4.66,4.66,0,0,1-1,.88,6,6,0,0,1-2.41.87,8.91,8.91,0,0,1-1.23.09,6,6,0,0,1-2.19-.39,4.85,4.85,0,0,1-1.76-1.15,5.47,5.47,0,0,1-1.18-1.89,7.53,7.53,0,0,1-.43-2.62,6.23,6.23,0,0,1,.38-2.17,5.12,5.12,0,0,1,1.07-1.77,5.06,5.06,0,0,1,1.7-1.19A5.55,5.55,0,0,1,268.59,112.25Zm.05,1.94a2.55,2.55,0,0,0-1.86.67,3.4,3.4,0,0,0-.86,1.91H271a3.22,3.22,0,0,0-.15-1,2.38,2.38,0,0,0-.43-.82,2.09,2.09,0,0,0-.75-.55A2.47,2.47,0,0,0,268.64,114.19Z" fill="#26008a"/><path d="M287.38,121.53a7.54,7.54,0,0,0,1.75-.18,7.62,7.62,0,0,0,1.41-.5V118h-2a.64.64,0,0,1-.45-.15.54.54,0,0,1-.17-.4v-1.67h5.3v6.44a9.17,9.17,0,0,1-1.26.76,8.12,8.12,0,0,1-1.4.54,10.66,10.66,0,0,1-1.59.31,14.85,14.85,0,0,1-1.83.1,8.36,8.36,0,0,1-3.2-.6,7.45,7.45,0,0,1-4.19-4.26,8.69,8.69,0,0,1-.6-3.27,8.9,8.9,0,0,1,.58-3.28,7.18,7.18,0,0,1,4.26-4.25,9.32,9.32,0,0,1,3.43-.59,9,9,0,0,1,3.37.57,8,8,0,0,1,2.41,1.5l-.85,1.35a.77.77,0,0,1-.67.4,1,1,0,0,1-.54-.17l-.72-.42a4.72,4.72,0,0,0-.82-.36,6.32,6.32,0,0,0-1-.26,8,8,0,0,0-1.28-.1,5.61,5.61,0,0,0-2.13.4,4.51,4.51,0,0,0-1.62,1.13,5.1,5.1,0,0,0-1,1.77,6.74,6.74,0,0,0-.37,2.31,7.12,7.12,0,0,0,.39,2.45,5,5,0,0,0,1.07,1.81,4.76,4.76,0,0,0,1.66,1.13A5.43,5.43,0,0,0,287.38,121.53Z" fill="#26008a"/><path d="M300.5,112.25a5.42,5.42,0,0,1,2,.34,4.33,4.33,0,0,1,1.55,1,4.55,4.55,0,0,1,1,1.61,6.09,6.09,0,0,1,.36,2.17,3.49,3.49,0,0,1,0,.51.8.8,0,0,1-.1.32.39.39,0,0,1-.19.17.87.87,0,0,1-.31,0h-7a3.92,3.92,0,0,0,.93,2.55,3,3,0,0,0,2.16.81,3.84,3.84,0,0,0,1.14-.15,5.09,5.09,0,0,0,.83-.34l.63-.34a1,1,0,0,1,.52-.16.54.54,0,0,1,.29.07.6.6,0,0,1,.21.18l.79,1a4.66,4.66,0,0,1-1,.88,5.28,5.28,0,0,1-1.17.57,5.47,5.47,0,0,1-1.24.3,8.91,8.91,0,0,1-1.23.09,6,6,0,0,1-2.19-.39,4.85,4.85,0,0,1-1.76-1.15,5.47,5.47,0,0,1-1.18-1.89,7.53,7.53,0,0,1-.43-2.62,6.23,6.23,0,0,1,.38-2.17,5.12,5.12,0,0,1,1.07-1.77,5.06,5.06,0,0,1,1.7-1.19A5.55,5.55,0,0,1,300.5,112.25Zm.05,1.94a2.55,2.55,0,0,0-1.86.67,3.4,3.4,0,0,0-.86,1.91h5.11a3.55,3.55,0,0,0-.14-1,2.59,2.59,0,0,0-.44-.82,2.09,2.09,0,0,0-.75-.55A2.47,2.47,0,0,0,300.55,114.19Z" fill="#26008a"/><path d="M307.59,123.71V112.42h1.66a.68.68,0,0,1,.7.5l.18.89a6.11,6.11,0,0,1,.72-.64,5.19,5.19,0,0,1,.81-.5,4.34,4.34,0,0,1,.9-.31,4.48,4.48,0,0,1,1.06-.11,4,4,0,0,1,1.64.31,3.27,3.27,0,0,1,1.19.88,4,4,0,0,1,.73,1.35,5.94,5.94,0,0,1,.25,1.74v7.18h-2.72v-7.18a2.44,2.44,0,0,0-.48-1.61,1.8,1.8,0,0,0-1.44-.56,2.74,2.74,0,0,0-1.32.32,4.46,4.46,0,0,0-1.16.87v8.16Z" fill="#26008a"/><path d="M324.76,112.25a5.47,5.47,0,0,1,2,.34,4.29,4.29,0,0,1,1.54,1,4.55,4.55,0,0,1,1,1.61,5.88,5.88,0,0,1,.37,2.17,3.49,3.49,0,0,1,0,.51.8.8,0,0,1-.1.32.44.44,0,0,1-.19.17.91.91,0,0,1-.31,0h-7A3.92,3.92,0,0,0,323,121a2.92,2.92,0,0,0,2.16.81,3.73,3.73,0,0,0,1.13-.15,5.63,5.63,0,0,0,.84-.34l.63-.34a1,1,0,0,1,.52-.16.57.57,0,0,1,.29.07.6.6,0,0,1,.21.18l.79,1a4.66,4.66,0,0,1-1,.88,5.57,5.57,0,0,1-1.18.57,5.34,5.34,0,0,1-1.24.3,8.69,8.69,0,0,1-1.23.09,6,6,0,0,1-2.18-.39,4.76,4.76,0,0,1-1.76-1.15,5.33,5.33,0,0,1-1.18-1.89,7.31,7.31,0,0,1-.43-2.62,6.22,6.22,0,0,1,.37-2.17,5.14,5.14,0,0,1,1.08-1.77,5,5,0,0,1,1.7-1.19A5.51,5.51,0,0,1,324.76,112.25Zm.06,1.94a2.55,2.55,0,0,0-1.86.67,3.27,3.27,0,0,0-.86,1.91h5.1a3.22,3.22,0,0,0-.14-1,2.24,2.24,0,0,0-.44-.82,2.09,2.09,0,0,0-.75-.55A2.46,2.46,0,0,0,324.82,114.19Z" fill="#26008a"/><path d="M331.86,123.71V112.42h1.59a.85.85,0,0,1,.59.16.94.94,0,0,1,.22.52l.16,1.37a5.28,5.28,0,0,1,1.42-1.65,2.94,2.94,0,0,1,1.82-.61,2.35,2.35,0,0,1,1.39.39l-.35,2a.42.42,0,0,1-.14.28.49.49,0,0,1-.3.09,1.94,1.94,0,0,1-.45-.08,3.1,3.1,0,0,0-.76-.08,2.29,2.29,0,0,0-1.45.47,3.56,3.56,0,0,0-1,1.37v7Z" fill="#26008a"/><path d="M349.37,123.71h-1.22a1.29,1.29,0,0,1-.61-.12.76.76,0,0,1-.33-.47l-.24-.8c-.29.26-.57.48-.84.68a5.64,5.64,0,0,1-.85.49,4.27,4.27,0,0,1-.94.29,5.35,5.35,0,0,1-1.1.1,4.34,4.34,0,0,1-1.32-.19,2.86,2.86,0,0,1-1-.58,2.64,2.64,0,0,1-.67-1,3.43,3.43,0,0,1-.25-1.33,2.72,2.72,0,0,1,.34-1.27,3.07,3.07,0,0,1,1.12-1.12,7,7,0,0,1,2.07-.84,13.37,13.37,0,0,1,3.23-.33v-.66a2.51,2.51,0,0,0-.48-1.69,1.73,1.73,0,0,0-1.39-.55,3.44,3.44,0,0,0-1.1.15,4.24,4.24,0,0,0-.77.35c-.21.13-.41.24-.6.34a1.12,1.12,0,0,1-.6.16.82.82,0,0,1-.47-.14,1.1,1.1,0,0,1-.32-.36l-.5-.87a6.76,6.76,0,0,1,4.7-1.78,4.42,4.42,0,0,1,1.76.33,3.61,3.61,0,0,1,1.32.9,3.81,3.81,0,0,1,.82,1.38,5.24,5.24,0,0,1,.28,1.76Zm-5.28-1.7a3.74,3.74,0,0,0,.77-.07,2.86,2.86,0,0,0,.66-.23,3.81,3.81,0,0,0,.61-.37,6.87,6.87,0,0,0,.59-.53v-1.89a11.05,11.05,0,0,0-2,.15,5.48,5.48,0,0,0-1.28.38,1.73,1.73,0,0,0-.69.55,1.22,1.22,0,0,0-.2.67,1.19,1.19,0,0,0,.42,1A1.82,1.82,0,0,0,344.09,122Z" fill="#26008a"/><path d="M355.75,123.88a3,3,0,0,1-2.26-.83,3.22,3.22,0,0,1-.79-2.29v-6.3h-1.14a.54.54,0,0,1-.38-.15.52.52,0,0,1-.16-.43v-1.07l1.81-.3.58-3.08a.52.52,0,0,1,.2-.34.65.65,0,0,1,.4-.12h1.41v3.55h3v1.94h-3v6.11a1.25,1.25,0,0,0,.26.83.89.89,0,0,0,.71.29,1.25,1.25,0,0,0,.42-.06l.3-.12.22-.13a.39.39,0,0,1,.2-.06.32.32,0,0,1,.2.06.73.73,0,0,1,.16.18l.82,1.32a4.14,4.14,0,0,1-1.37.75A5,5,0,0,1,355.75,123.88Z" fill="#26008a"/><path d="M365.37,112.25a6.24,6.24,0,0,1,2.3.4,4.92,4.92,0,0,1,2.87,3,7.49,7.49,0,0,1,0,4.83,5.12,5.12,0,0,1-1.12,1.84,4.94,4.94,0,0,1-1.75,1.17,6.81,6.81,0,0,1-4.6,0,5,5,0,0,1-1.76-1.17,5.14,5.14,0,0,1-1.13-1.84,7.32,7.32,0,0,1,0-4.83,5,5,0,0,1,2.89-3A6.28,6.28,0,0,1,365.37,112.25Zm0,9.53a2.4,2.4,0,0,0,2.09-.94,4.76,4.76,0,0,0,.67-2.77,4.83,4.83,0,0,0-.67-2.79,2.38,2.38,0,0,0-2.09-1,2.43,2.43,0,0,0-2.11,1,4.81,4.81,0,0,0-.68,2.78,4.72,4.72,0,0,0,.68,2.76A2.41,2.41,0,0,0,365.37,121.78Z" fill="#26008a"/><path d="M373.06,123.71V112.42h1.6a.81.81,0,0,1,.58.16.87.87,0,0,1,.22.52l.17,1.37a5.26,5.26,0,0,1,1.41-1.65,3,3,0,0,1,1.83-.61,2.35,2.35,0,0,1,1.39.39l-.36,2a.38.38,0,0,1-.14.28.45.45,0,0,1-.3.09,1.94,1.94,0,0,1-.45-.08,3,3,0,0,0-.76-.08,2.33,2.33,0,0,0-1.45.47,3.64,3.64,0,0,0-1,1.37v7Z" fill="#26008a"/></g></g></svg>