<svg xmlns="http://www.w3.org/2000/svg" viewBox="0 0 504.92 134.36"><g id="Layer_2" data-name="Layer 2"><g id="Layer_1-2" data-name="Layer 1"><path d="M15.46,15.91c.5.12,1,.28,1.48.41a9.94,9.94,0,0,1-3.84.48,62.3,62.3,0,0,0,12.22,1,91.68,91.68,0,0,0,12.78-1,110.31,110.31,0,0,0,12.24-2.52A93.27,93.27,0,0,0,61,10.87c4.67-.15,8.75-1.65,9.09-3.38s-3.19-3-7.92-2.88a22.55,22.55,0,0,1-3-.44A81.39,81.39,0,0,0,47.78,1.49C43.69.83,39.32.35,34.74,0l5.42,1.12A52.12,52.12,0,0,0,32,.83c.32.29.74.57,1.07.86C23.86,0,11.6,1.87,5.66,5.59s-3.39,8,5.74,9.56Z" fill="#5f26ff"/><path d="M32.89,24.51C27.46,23.77,22.23,23,17,22.15l-1.07-.49.55,2.58.09-.17a37,37,0,0,1,8.91-3.16c3.46-.82,7.26-1.48,10.9-2.05L39,18.29a3.57,3.57,0,0,0,2.25-1.56c.52-1.3-1.85-2.32-5.28-2.29l-4,.05a79.56,79.56,0,0,0-8.06-.23,74.94,74.94,0,0,0-8.62.7c-5.61.8-10.62,2.29-13.11,4.72-1.12,1.12,0,2.33.4,3.5-.22,1.76,3.5,3,8.28,2.73s8.79-1.89,9-3.66l2.47.17-1.87.77c1.23-1.62,5.57-2.3,8.76-3.32l4.84-.77-3-3.86L28.51,16a5.67,5.67,0,0,1,.57.41c-4.75,1.43-9.2,2.91-14.42,4l-6.52,2c-1.73.91-1.46,2,.56,2.58l3,.64-1.37-.41c6.85.39,14,.32,20.82.84a4.54,4.54,0,0,0,2.89-.59C34.49,25.05,34,24.61,32.89,24.51Z" fill="#5f26ff"/><path d="M9,26.89a10.61,10.61,0,0,0-3.77-.27L4.59,27l2.2.52C8.37,27.9,9.14,27.45,9,26.89Z" fill="#5f26ff"/><path d="M4.59,27l-.92-.22.63.33.18,0Z" fill="#5f26ff"/><path d="M304.12,17.16c21.34,2.83,42.71,6.38,64,10.15.71.14,1.35.06,1.42-.19s-.45-.53-1.11-.64c-21.33-3.82-42.62-7.36-64-10.2-.72-.08-1.33,0-1.45.27S303.45,17.06,304.12,17.16Z" fill="#5f26ff"/><path d="M457.53,64c-.55.07-.59.33-.11.63a3.28,3.28,0,0,0,1.75.4c.46,0,.52-.35.11-.62A3.15,3.15,0,0,0,457.53,64Z" fill="#5f26ff"/><path d="M448.76,82.19a43.91,43.91,0,0,0-7.77,0,2.75,2.75,0,0,1-1.27-.23c.09.43-.49.71-1.49.72-9.9.1-20.26.34-31.5.19-2.81,0-5.63-.11-8.55-.24s-5.84-.28-8.82-.49c-1.47-.08-3-.23-4.51-.38l-4.55-.45-8.09-.73a2.23,2.23,0,0,1-1.06.77c-1.64.75-4.67.76-7.69.05l-2.26-.65c-4.58-1.16-9.23-2-13.85-3L333.5,74.85a34.06,34.06,0,0,1-6.66.06c-4.11.13-8.23.24-12.35.3-2.06,0-4.14.08-6.22.15l-6.26.11c.49.33.77.7.73,1.06-.25.85-2.23,1.31-4.46,1l-3.38-.28L304.52,79a7.26,7.26,0,0,1,1.27.27l5.34.55,5.41.58c15.87,1.48,31.31,2.62,46.52,3.77q5.71.47,11.39.84l12.27.85c8.56.43,16.66.32,24.4.15a2.94,2.94,0,0,1,1.72.26c.28.24.2.52-.37.58C402.65,88,392.92,89.61,382,90.13l-2.05.09c-.68,0-1.42,0-2,.1l-3.53.25c-2.37.15-4.77.28-7.2.37s-4.9.14-7.43.15l-7.75,0q-9.48-.09-18.86-.29c-6.29,0-12.56,0-18.83-.06l-4.7,0-4.73,0-9.47,0c-3.17,0-6.33,0-9.52,0l-9.6.12c-26.69-2.07-51.63-1.07-79.08.15C160.18,92.75,125,94.11,88.39,96.2a64.35,64.35,0,0,1-9.94.27,50.59,50.59,0,0,1-8.7-1.07c-5.19-1.15-8.93-3.11-10-5.62-1.24-3,1.69-6.19,7.26-8.54l-3.38.14-5.39-.28c-5.1-.32-9.52-1.26-12.37-2.82L42,76.39c-5.29-3.72-13.66-6.61-18.1-10.55l.8-1.68-1-.39c-3.3-.93-5.59-2.3-6.46-3.88l.15-2a12.9,12.9,0,0,1,4.38-6.7,3.09,3.09,0,0,1,.71-2.47c-2.37-1.83-3.58-3.84-2-6.3-1.37-.47-1.22-1.34.33-1.95A7.8,7.8,0,0,1,22.61,40h0a20.33,20.33,0,0,0-2-1.07c-1.34-.07-2.11-.14-2.11-.14l-6.64-.15a18.55,18.55,0,0,1-4.38-1.3c-3.2-3.27-3.2-3.26-2.87-4.8a3.53,3.53,0,0,1,.53-.48c-2.38-.31-2.55-.34-3.19-.44a6.53,6.53,0,0,1-1.16-.5c-.17-.8-.17-.8-.59-1.06a1.49,1.49,0,0,1-.15-.6c1.23-1,1.23-1,1.24-1.26a4.27,4.27,0,0,1,.7-.5l2.36-.62L7.76,29l.65-.78.85.9-.51-.85,1.7.41L8.5,28A37.78,37.78,0,0,0,14,27.86a17.53,17.53,0,0,0,3.19-.38A1.2,1.2,0,0,1,17,27c4.22,0,4.21,0,8.33.06a9.37,9.37,0,0,1,1,.52,3.6,3.6,0,0,1,2-.46h2.16l.45-.16a.32.32,0,0,1,0-.07l1.78-.54.37-.13h0l7.72-2.35c1.28,0,2.47.07,3.6.16-.37-.1-.72-.21-1.07-.32-.68-.24-.13-1.06-.5-1.1-9.09-1-18.94-1-28.64-1.1-1.72.23-3.38-.1-3.68-.71s.91-1.29,2.68-1.52A144.47,144.47,0,0,1,44.65,14c5.49-.4,11-.44,16.47-.33s10.76.42,15.86,1q8,.2,16.1.26l-.79-.35,4.19.38h.45l-3.22-1.26-2.2-.3c-6.24,0-12.22-.37-18.15-.86s-11.79-1-17.85-1.31C49,10.88,43.37,10,37.2,9.38c-1.57,0-2.7-.4-2.55-1s1.58-1.07,3.12-1.11A249.09,249.09,0,0,1,69.31,5.42,131.9,131.9,0,0,1,98.1,8.47a38.65,38.65,0,0,1,10.38.89h.17l-2.35-1.1c2.81.19,4.34,1.1,6.9,1.42l-1-1.58c3.45.11,7,.13,10.52.13l10.65.1a135.57,135.57,0,0,1,20.44,1.48c.52,0,1,.08,1.48.13a93.49,93.49,0,0,1,17.62-2.58l-6.6-.45c2.37-.37,4.74-.71,7.15-.9s4.88-.28,7.43-.24c3.45,0,7,.24,10.52.58,1.75.16,3.49.36,5.2.6s3.38.55,5,.87c6.5,1.3,12.15,3.09,15.74,5.28,26.74.22,53.58,1.3,80.43,2.7,1.39.07,2.59.53,2.79,1s-.85.86-2.24.79c-4.83-.11-9.66-.05-14.51-.11s-9.69-.14-14.54-.25l-14.57-.12c-4.86-.06-9.73-.17-14.59-.13,2,.19,4,.34,6.08.56l6.08.64,12.2,1.24c4.08.36,8.17.83,12.28,1.27s8.24.83,12.38,1.2c2.12.1,4.26.17,6.4.33a50.69,50.69,0,0,1,6.26.88l15.73,1.62,15.57,1.88,7.8.87,7.86,1c5.26.63,10.59,1.21,16,1.71l13.56,1.53,6.6.73c2.15.23,4.54.5,6.19.62,7.2.68,14.91.88,23.84,1l9.55.17,2.41.06,2.48.09,4.95.19c3.41.21,6.7.34,10.2.7,1.73.17,3.44.32,5.18.51l5.28.7a146.5,146.5,0,0,1,43.2,12.81A23.62,23.62,0,0,1,501,50.7a15.42,15.42,0,0,1,2.14,1.57c1.2,1,1.9,2,1.82,2.69s-.9.87-2.16.7a11.77,11.77,0,0,1-2.18-.53c-.81-.28-1.7-.62-2.65-1a172.14,172.14,0,0,0-45.17-11.89c-14.84-2-28.76-2.16-41.5-2.71-6.42-.25-12.43-.63-18.29-1.24l-4.33-.51-5-.66L373.51,35.7c-3.38-.47-6.76-1-10.15-1.46l-10.22-1.35-10.26-1.45c-3.43-.52-6.88-.9-10.34-1.38-6-.78-11.84-1.64-17.68-2.35a1.15,1.15,0,0,1,.09.51c-.07.66-.7,1.22-1.69,1.64,3.32.38,6.63.93,9.95,1.47s6.64,1.11,10,1.7l7.06.34,7.06.53c4.72.38,9.45.79,14.22,1.28,2.39.22,4.77.54,7.16.89s4.8.71,7.21,1.1,4.84.81,7.28,1.26,5,1,7,1.39c11.63,2.57,23.45,4.86,36.06,7.59,16.24,1,33.94,2.77,51.51,8.42a2.49,2.49,0,0,1,1.56.87c.16.32-.29.4-1,.2a230.19,230.19,0,0,0-37-5.39c1.78,1.06,2.73,2.22,2.4,3.27s-1.94,1.85-4.23,2.2l4,.67c1.33.21,2.65.45,4,.75,1.65.35,2.86,1,2.7,1.57s-1.54.76-3.09.45c-10.76-2.09-21.45-3.24-31.84-4.37-6.3-.31-12.45-.65-18.53-1.19l-4.55-.43-4.49-.57-4.61-.6-4.72-.65a7.55,7.55,0,0,1,3.14,3.27v0l5.72.9c17.32,1.45,35.25.86,53.95,3.05a153.18,153.18,0,0,1,28.08,5.79A124.28,124.28,0,0,1,496,77.45c.67.35,1.13.83,1,1.07s-.75.14-1.34-.21A127.44,127.44,0,0,0,463.3,64.89l0,0c.41.28.41.58-.13.62a3.42,3.42,0,0,1-1.75-.48c-.47-.31-.35-.58.12-.62a175.67,175.67,0,0,0-31.41-4.7c-10.34-.72-20.46-.86-30.39-1.28,9.16,1,18.47,1.65,27.85,2.72a193.13,193.13,0,0,1,28.15,5c1.05.09,2.12.15,3.18.26l3.19.41a2.39,2.39,0,0,1,1.43.74c.1.25-.38.39-1,.29l-1.77-.25a13.92,13.92,0,0,1,4.18,2c1,.75,1.42,1.58,1.19,2.19s-1.25.9-2.58,1a14.46,14.46,0,0,1-4.76-.67A239.52,239.52,0,0,0,430,67.31l-3.18-.12-3.24.28c7.52,1.07,15,2.35,22.3,4.06,1.82.45,3.66.81,5.45,1.35l5.39,1.51c3.53,1.18,7.07,2.29,10.48,3.71,1.2.39,2.1,1.1,2,1.56s-1.23.51-2.42.12C454.25,76.47,441.4,75,428.25,74.1S401.5,72.85,387.48,71l-7.06.36-6.79.4L360,72.57c1.1.23,2.22.44,3.34.64q5.34.93,10.54,1.57c1.73.22,3.46.42,5.18.6l5.39.54c3.72.38,7.32.51,10.91.64s7.07.09,10.5,0c6.9-.08,13.61-.33,20.29-.27a134.91,134.91,0,0,1,20.11,1.4c.68.07,1.2.38,1.24.63s-.48.4-1.16.27a137.3,137.3,0,0,0-19.48-1.08c-6.48,0-13.11.27-20.13.24l-4.36,0L398,77.68c-2.89,0-5.85-.17-8.75-.26s-5.93-.36-8.74-.49q-4-.18-7.94-.27c2.63.38,5.26.74,7.88,1.06,2.79.34,5.77.74,8.59,1,5.68.48,11.28.75,16.67.87,10.85.28,21.21.23,31.35,1.24a4.81,4.81,0,0,1,2.27.62.73.73,0,0,1,.55-.25,56.45,56.45,0,0,1,8.23,0,1.92,1.92,0,0,1,1.4.58C449.73,82,449.37,82.19,448.76,82.19Zm-374.27-51-.56-.25,1.94.38,2.77,1.8ZM41.61,40.45h0l-1.61-1Zm214.18-20.2c-11.65-.8-23.14-1.53-34.61-3.22h8.44q6.52.69,13.07,1.44C247.05,19,251.42,19.64,255.79,20.25Zm-204.18,5a40.58,40.58,0,0,1,7.84,3.06,43.54,43.54,0,0,1,6.15-.64c2.83-.11,5.63-.18,8.39-.23s5.52,0,8.25,0c-.75-.64.56-.63,1.22-.75l2-.27-17.61-.62C62.54,25.63,56.73,25.69,51.61,25.24ZM11.46,30.83,11,30.62l1-1.11ZM9.9,32.69l.84.07C10.47,33.17,10.19,33.05,9.9,32.69Zm7.68.68a5,5,0,0,0-1.12-.46Zm7.66,29.56,2.54-5.32L25,62.75Z" fill="#5f26ff"/><text transform="translate(51.88 66.59)" font-size="54" fill="#fff" font-family="ForteMT, Forte">B<tspan x="35.41" y="0" letter-spacing="-0.02em">o</tspan><tspan x="63.86" y="0">rder </tspan><tspan x="167.22" y="0" letter-spacing="-0.08em">P</tspan><tspan x="194.99" y="0">ainter</tspan></text><text transform="translate(60.12 123.71)" font-size="22" fill="#4b0aff" font-family="Lato-Bold, Lato" font-weight="700">Custom Border Image Gene<tspan x="270.29" y="0" letter-spacing="-0.01em">r</tspan><tspan x="278.96" y="0">ator</tspan></text></g></g></svg>