<svg xmlns="http://www.w3.org/2000/svg" viewBox="0 0 87.46 71.19"><g id="Layer_2" data-name="Layer 2"><g id="Layer_1-2" data-name="Layer 1"><path d="M21.45,5.53c3.39.4,7,3,10.66,5.07l1.37.78,1.36.68a19,19,0,0,0,2.69,1.06,9.51,9.51,0,0,0,1.32.29,8.17,8.17,0,0,0,1.29.13,8.67,8.67,0,0,0,1.25-.11,4.84,4.84,0,0,0,1.21-.33c.47-.23.94-.44,1.41-.62s.94-.42,1.41-.6l.71-.26.7-.28c.47-.18.94-.34,1.42-.49.94-.38,1.89-.62,2.82-1L53.89,9c1.86-.66,3.73-1.23,5.52-2l.68-.27.67-.3,1.33-.6c.86-.47,1.74-.86,2.57-1.39.43,2.48.48,6.57,1.28,7.47a10.59,10.59,0,0,1,3.2,5,50.85,50.85,0,0,1,1.66,7c.46,2.47-1.88,1.29-.81,3.34A11,11,0,0,0,67.08,30c-.72,1-.91,2.15.29,2.9a1,1,0,0,0,1,.7,4,4,0,0,0,1.23-.39A2,2,0,0,1,70.86,33c.41.09.79.44,1.13,1.25a19.35,19.35,0,0,1,1,5.57,19,19,0,0,0,1,5.56l1.41-1,1.38-1.07c.59,1,.79,2.93.92,4.6s.19,3,.55,2.75a2.79,2.79,0,0,0,1,.1,3.15,3.15,0,0,0,1-.31,6.45,6.45,0,0,0,1-.59,6.8,6.8,0,0,0,1-.84c.66-.66,1.33-1.39,2-2.17s1.34-1.66,2-2.43c.3,1.18.75,2.17,1,3.2a5.93,5.93,0,0,1,.21,1.59A5.25,5.25,0,0,1,87,51.15C81,58.76,74.37,64,67.51,67.28A39.3,39.3,0,0,1,46.2,71c-7.27-.79-14.62-3.58-21.84-8.16a82.46,82.46,0,0,1-10.73-8.2c-1.76-1.57-3.51-3.27-5.25-5.05-.87-.88-1.72-1.83-2.59-2.76l-.66-.73-.82-.92c-.32-.35-.64-.73-1-1.19l-.58-.72-.56-.74A13.64,13.64,0,0,1,0,37.72a3.68,3.68,0,0,1,.12-1.09,2.87,2.87,0,0,1,.17-.44c0-.08.1-.1.15-.14L.63,36A6.4,6.4,0,0,1,2.88,36l.7.08c.24,0,.5.07.73.07a5.3,5.3,0,0,0,1.3-.11c-.52.11-.75-.78-1-1.65s-.44-1.78-1.07-1.93a6.59,6.59,0,0,1,.8-2.32,9.23,9.23,0,0,1,1.49-1.84,5.69,5.69,0,0,1,1.75-1.24,2.41,2.41,0,0,1,2.08.21L7.5,25.16c-.64-1.9.32-3.51.53-5.87.72.7,1.44,1.4,1.54.22l.4-4.72c-.7-.68-2.16-2-2.75-2.73.62.68,1.34,1.37,1.44.2s.32-3.52.43-4.7c.74.08,1.58,1.23,2.42,2.32s1.69,2.21,2.43,2.21l.26-3.58a7.9,7.9,0,0,0-2.37-2.62A26.54,26.54,0,0,1,9.4,4.05c.79-.52.89-1.7,1.1-4A4.12,4.12,0,0,1,12,1.26c.5.58,1,1.26,1.48,1.87A4.8,4.8,0,0,0,15,4.51a1.34,1.34,0,0,0,1.61-.24c-.67-.53-1.34-1.15-2-1.73.44-1.2,1-1.62,1.51-1.57A3.16,3.16,0,0,1,17.9,2.16c.61.68,1.24,1.46,1.85,2.13a7.79,7.79,0,0,0,.88.86A1.82,1.82,0,0,0,21.45,5.53Z" fill="#26008a"/><text transform="translate(26.18 55.76)" font-size="54" fill="#fff" font-family="ForteMT, Forte">B</text></g></g></svg>